<mxfile host="app.diagrams.net" modified="2023-05-20T06:49:32.783Z" agent="Mozilla/5.0 (Windows NT 10.0; Win64; x64) AppleWebKit/537.36 (KHTML, like Gecko) Chrome/113.0.0.0 Safari/537.36 Edg/113.0.1774.42" etag="gRG467-Ae0x6uYnjD-y_" version="21.2.1" type="github">
  <diagram name="Page-1" id="2YBvvXClWsGukQMizWep">
    <mxGraphModel dx="684" dy="666" grid="0" gridSize="10" guides="1" tooltips="1" connect="1" arrows="1" fold="1" page="1" pageScale="1" pageWidth="850" pageHeight="1100" math="0" shadow="0">
      <root>
        <mxCell id="0" />
        <mxCell id="1" parent="0" />
        <mxCell id="aM9ryv3xv72pqoxQDRHE-1" value="HomePage" style="shape=umlLifeline;perimeter=lifelinePerimeter;whiteSpace=wrap;html=1;container=0;dropTarget=0;collapsible=0;recursiveResize=0;outlineConnect=0;portConstraint=eastwest;newEdgeStyle={&quot;edgeStyle&quot;:&quot;elbowEdgeStyle&quot;,&quot;elbow&quot;:&quot;vertical&quot;,&quot;curved&quot;:0,&quot;rounded&quot;:0};" parent="1" vertex="1">
          <mxGeometry x="50" y="40" width="100" height="330" as="geometry" />
        </mxCell>
        <mxCell id="aM9ryv3xv72pqoxQDRHE-2" value="" style="html=1;points=[];perimeter=orthogonalPerimeter;outlineConnect=0;targetShapes=umlLifeline;portConstraint=eastwest;newEdgeStyle={&quot;edgeStyle&quot;:&quot;elbowEdgeStyle&quot;,&quot;elbow&quot;:&quot;vertical&quot;,&quot;curved&quot;:0,&quot;rounded&quot;:0};" parent="aM9ryv3xv72pqoxQDRHE-1" vertex="1">
          <mxGeometry x="45" y="70" width="10" height="240" as="geometry" />
        </mxCell>
        <mxCell id="aM9ryv3xv72pqoxQDRHE-3" value="создание" style="html=1;verticalAlign=bottom;startArrow=oval;endArrow=block;startSize=8;edgeStyle=elbowEdgeStyle;elbow=vertical;curved=0;rounded=0;" parent="aM9ryv3xv72pqoxQDRHE-1" target="aM9ryv3xv72pqoxQDRHE-2" edge="1">
          <mxGeometry relative="1" as="geometry">
            <mxPoint x="-15" y="70" as="sourcePoint" />
          </mxGeometry>
        </mxCell>
        <mxCell id="tQIkWaGdxPZCIWXsiyPz-3" value="" style="html=1;points=[];perimeter=orthogonalPerimeter;outlineConnect=0;targetShapes=umlLifeline;portConstraint=eastwest;newEdgeStyle={&quot;edgeStyle&quot;:&quot;elbowEdgeStyle&quot;,&quot;elbow&quot;:&quot;vertical&quot;,&quot;curved&quot;:0,&quot;rounded&quot;:0};" vertex="1" parent="aM9ryv3xv72pqoxQDRHE-1">
          <mxGeometry x="50" y="80" width="10" height="40" as="geometry" />
        </mxCell>
        <mxCell id="aM9ryv3xv72pqoxQDRHE-5" value="PresentationEdit" style="shape=umlLifeline;perimeter=lifelinePerimeter;whiteSpace=wrap;html=1;container=0;dropTarget=0;collapsible=0;recursiveResize=0;outlineConnect=0;portConstraint=eastwest;newEdgeStyle={&quot;edgeStyle&quot;:&quot;elbowEdgeStyle&quot;,&quot;elbow&quot;:&quot;vertical&quot;,&quot;curved&quot;:0,&quot;rounded&quot;:0};" parent="1" vertex="1">
          <mxGeometry x="220" y="40" width="100" height="300" as="geometry" />
        </mxCell>
        <mxCell id="aM9ryv3xv72pqoxQDRHE-6" value="" style="html=1;points=[];perimeter=orthogonalPerimeter;outlineConnect=0;targetShapes=umlLifeline;portConstraint=eastwest;newEdgeStyle={&quot;edgeStyle&quot;:&quot;elbowEdgeStyle&quot;,&quot;elbow&quot;:&quot;vertical&quot;,&quot;curved&quot;:0,&quot;rounded&quot;:0};" parent="aM9ryv3xv72pqoxQDRHE-5" vertex="1">
          <mxGeometry x="45" y="80" width="10" height="210" as="geometry" />
        </mxCell>
        <mxCell id="aM9ryv3xv72pqoxQDRHE-7" value="create (name)" style="html=1;verticalAlign=bottom;endArrow=block;edgeStyle=elbowEdgeStyle;elbow=vertical;curved=0;rounded=0;" parent="1" source="aM9ryv3xv72pqoxQDRHE-2" target="aM9ryv3xv72pqoxQDRHE-6" edge="1">
          <mxGeometry x="0.0028" relative="1" as="geometry">
            <mxPoint x="195" y="130" as="sourcePoint" />
            <Array as="points">
              <mxPoint x="230" y="170" />
              <mxPoint x="130" y="200" />
              <mxPoint x="220" y="170" />
              <mxPoint x="130" y="190" />
              <mxPoint x="180" y="120" />
            </Array>
            <mxPoint as="offset" />
          </mxGeometry>
        </mxCell>
        <mxCell id="aM9ryv3xv72pqoxQDRHE-8" value="create PageRoute" style="html=1;verticalAlign=bottom;endArrow=open;dashed=1;endSize=8;edgeStyle=elbowEdgeStyle;elbow=vertical;curved=0;rounded=0;" parent="1" source="aM9ryv3xv72pqoxQDRHE-6" target="aM9ryv3xv72pqoxQDRHE-2" edge="1">
          <mxGeometry relative="1" as="geometry">
            <mxPoint x="195" y="205" as="targetPoint" />
            <Array as="points">
              <mxPoint x="200" y="320" />
              <mxPoint x="230" y="250" />
              <mxPoint x="190" y="280" />
            </Array>
          </mxGeometry>
        </mxCell>
        <mxCell id="tQIkWaGdxPZCIWXsiyPz-4" value="createQuiz" style="html=1;verticalAlign=bottom;endArrow=block;edgeStyle=elbowEdgeStyle;elbow=vertical;curved=0;rounded=0;strokeColor=default;" edge="1" parent="1" source="tQIkWaGdxPZCIWXsiyPz-3">
          <mxGeometry relative="1" as="geometry">
            <mxPoint x="205" y="210" as="sourcePoint" />
            <Array as="points">
              <mxPoint x="140" y="130" />
              <mxPoint x="140" y="120" />
              <mxPoint x="150" y="150" />
              <mxPoint x="190" y="170" />
              <mxPoint x="150" y="150" />
              <mxPoint x="120" y="170" />
            </Array>
            <mxPoint x="180" y="130" as="targetPoint" />
          </mxGeometry>
        </mxCell>
        <mxCell id="tQIkWaGdxPZCIWXsiyPz-5" value="" style="html=1;verticalAlign=bottom;endArrow=block;edgeStyle=elbowEdgeStyle;elbow=vertical;curved=0;rounded=0;" edge="1" parent="1" target="tQIkWaGdxPZCIWXsiyPz-3">
          <mxGeometry relative="1" as="geometry">
            <mxPoint x="180" y="130" as="sourcePoint" />
            <Array as="points">
              <mxPoint x="140" y="150" />
              <mxPoint x="150" y="140" />
              <mxPoint x="180" y="170" />
              <mxPoint x="160" y="160" />
              <mxPoint x="190" y="170" />
              <mxPoint x="160" y="160" />
              <mxPoint x="200" y="180" />
              <mxPoint x="160" y="160" />
              <mxPoint x="130" y="180" />
            </Array>
            <mxPoint x="210" y="160" as="targetPoint" />
          </mxGeometry>
        </mxCell>
        <mxCell id="tQIkWaGdxPZCIWXsiyPz-6" value="SlideData" style="shape=umlLifeline;perimeter=lifelinePerimeter;whiteSpace=wrap;html=1;container=0;dropTarget=0;collapsible=0;recursiveResize=0;outlineConnect=0;portConstraint=eastwest;newEdgeStyle={&quot;edgeStyle&quot;:&quot;elbowEdgeStyle&quot;,&quot;elbow&quot;:&quot;vertical&quot;,&quot;curved&quot;:0,&quot;rounded&quot;:0};" vertex="1" parent="1">
          <mxGeometry x="360" y="40" width="100" height="300" as="geometry" />
        </mxCell>
        <mxCell id="tQIkWaGdxPZCIWXsiyPz-7" value="" style="html=1;points=[];perimeter=orthogonalPerimeter;outlineConnect=0;targetShapes=umlLifeline;portConstraint=eastwest;newEdgeStyle={&quot;edgeStyle&quot;:&quot;elbowEdgeStyle&quot;,&quot;elbow&quot;:&quot;vertical&quot;,&quot;curved&quot;:0,&quot;rounded&quot;:0};" vertex="1" parent="tQIkWaGdxPZCIWXsiyPz-6">
          <mxGeometry x="45" y="120" width="10" height="170" as="geometry" />
        </mxCell>
        <mxCell id="tQIkWaGdxPZCIWXsiyPz-10" value="" style="html=1;points=[];perimeter=orthogonalPerimeter;outlineConnect=0;targetShapes=umlLifeline;portConstraint=eastwest;newEdgeStyle={&quot;edgeStyle&quot;:&quot;elbowEdgeStyle&quot;,&quot;elbow&quot;:&quot;vertical&quot;,&quot;curved&quot;:0,&quot;rounded&quot;:0};" vertex="1" parent="tQIkWaGdxPZCIWXsiyPz-6">
          <mxGeometry x="50" y="130" width="10" height="40" as="geometry" />
        </mxCell>
        <mxCell id="tQIkWaGdxPZCIWXsiyPz-25" value="" style="html=1;points=[];perimeter=orthogonalPerimeter;outlineConnect=0;targetShapes=umlLifeline;portConstraint=eastwest;newEdgeStyle={&quot;edgeStyle&quot;:&quot;elbowEdgeStyle&quot;,&quot;elbow&quot;:&quot;vertical&quot;,&quot;curved&quot;:0,&quot;rounded&quot;:0};" vertex="1" parent="tQIkWaGdxPZCIWXsiyPz-6">
          <mxGeometry x="50" y="185" width="10" height="40" as="geometry" />
        </mxCell>
        <mxCell id="tQIkWaGdxPZCIWXsiyPz-26" value="delete" style="html=1;verticalAlign=bottom;endArrow=block;edgeStyle=elbowEdgeStyle;elbow=vertical;curved=0;rounded=0;strokeColor=default;" edge="1" parent="tQIkWaGdxPZCIWXsiyPz-6" source="tQIkWaGdxPZCIWXsiyPz-25">
          <mxGeometry x="0.0435" relative="1" as="geometry">
            <mxPoint x="60" y="195" as="sourcePoint" />
            <Array as="points">
              <mxPoint x="90" y="195" />
              <mxPoint x="90" y="185" />
              <mxPoint x="100" y="215" />
              <mxPoint x="140" y="235" />
              <mxPoint x="100" y="215" />
              <mxPoint x="70" y="235" />
            </Array>
            <mxPoint x="175" y="195" as="targetPoint" />
            <mxPoint as="offset" />
          </mxGeometry>
        </mxCell>
        <mxCell id="tQIkWaGdxPZCIWXsiyPz-27" value="ListItems" style="html=1;verticalAlign=bottom;endArrow=open;dashed=1;endSize=8;edgeStyle=elbowEdgeStyle;elbow=vertical;curved=0;rounded=0;" edge="1" parent="tQIkWaGdxPZCIWXsiyPz-6">
          <mxGeometry x="-0.0833" relative="1" as="geometry">
            <mxPoint x="60" y="215" as="targetPoint" />
            <Array as="points">
              <mxPoint x="160" y="215" />
              <mxPoint x="100" y="265" />
            </Array>
            <mxPoint x="175" y="215" as="sourcePoint" />
            <mxPoint as="offset" />
          </mxGeometry>
        </mxCell>
        <mxCell id="tQIkWaGdxPZCIWXsiyPz-8" value="create Slide" style="html=1;verticalAlign=bottom;endArrow=block;edgeStyle=elbowEdgeStyle;elbow=vertical;curved=0;rounded=0;" edge="1" parent="1" source="aM9ryv3xv72pqoxQDRHE-6" target="tQIkWaGdxPZCIWXsiyPz-7">
          <mxGeometry x="0.008" relative="1" as="geometry">
            <mxPoint x="280" y="170" as="sourcePoint" />
            <Array as="points">
              <mxPoint x="290" y="180" />
              <mxPoint x="405" y="170" />
              <mxPoint x="305" y="200" />
              <mxPoint x="395" y="170" />
              <mxPoint x="305" y="190" />
              <mxPoint x="355" y="120" />
            </Array>
            <mxPoint x="440" y="170" as="targetPoint" />
            <mxPoint as="offset" />
          </mxGeometry>
        </mxCell>
        <mxCell id="tQIkWaGdxPZCIWXsiyPz-13" value="add (parm)" style="html=1;verticalAlign=bottom;endArrow=block;edgeStyle=elbowEdgeStyle;elbow=vertical;curved=0;rounded=0;strokeColor=default;" edge="1" parent="1" source="tQIkWaGdxPZCIWXsiyPz-10" target="tQIkWaGdxPZCIWXsiyPz-18">
          <mxGeometry x="0.0435" relative="1" as="geometry">
            <mxPoint x="420" y="180" as="sourcePoint" />
            <Array as="points">
              <mxPoint x="450" y="180" />
              <mxPoint x="450" y="170" />
              <mxPoint x="460" y="200" />
              <mxPoint x="500" y="220" />
              <mxPoint x="460" y="200" />
              <mxPoint x="430" y="220" />
            </Array>
            <mxPoint x="490" y="180" as="targetPoint" />
            <mxPoint as="offset" />
          </mxGeometry>
        </mxCell>
        <mxCell id="tQIkWaGdxPZCIWXsiyPz-16" value="updateUi" style="html=1;verticalAlign=bottom;endArrow=open;dashed=1;endSize=8;edgeStyle=elbowEdgeStyle;elbow=vertical;curved=0;rounded=0;" edge="1" parent="1" source="tQIkWaGdxPZCIWXsiyPz-7" target="aM9ryv3xv72pqoxQDRHE-6">
          <mxGeometry relative="1" as="geometry">
            <mxPoint x="240" y="250" as="targetPoint" />
            <Array as="points">
              <mxPoint x="350" y="200" />
              <mxPoint x="370" y="280" />
              <mxPoint x="325" y="250" />
            </Array>
            <mxPoint x="400" y="250" as="sourcePoint" />
          </mxGeometry>
        </mxCell>
        <mxCell id="tQIkWaGdxPZCIWXsiyPz-17" value="Slide" style="shape=umlLifeline;perimeter=lifelinePerimeter;whiteSpace=wrap;html=1;container=0;dropTarget=0;collapsible=0;recursiveResize=0;outlineConnect=0;portConstraint=eastwest;newEdgeStyle={&quot;edgeStyle&quot;:&quot;elbowEdgeStyle&quot;,&quot;elbow&quot;:&quot;vertical&quot;,&quot;curved&quot;:0,&quot;rounded&quot;:0};" vertex="1" parent="1">
          <mxGeometry x="490" y="40" width="100" height="300" as="geometry" />
        </mxCell>
        <mxCell id="tQIkWaGdxPZCIWXsiyPz-18" value="" style="html=1;points=[];perimeter=orthogonalPerimeter;outlineConnect=0;targetShapes=umlLifeline;portConstraint=eastwest;newEdgeStyle={&quot;edgeStyle&quot;:&quot;elbowEdgeStyle&quot;,&quot;elbow&quot;:&quot;vertical&quot;,&quot;curved&quot;:0,&quot;rounded&quot;:0};" vertex="1" parent="tQIkWaGdxPZCIWXsiyPz-17">
          <mxGeometry x="45" y="120" width="10" height="50" as="geometry" />
        </mxCell>
        <mxCell id="tQIkWaGdxPZCIWXsiyPz-19" value="" style="html=1;points=[];perimeter=orthogonalPerimeter;outlineConnect=0;targetShapes=umlLifeline;portConstraint=eastwest;newEdgeStyle={&quot;edgeStyle&quot;:&quot;elbowEdgeStyle&quot;,&quot;elbow&quot;:&quot;vertical&quot;,&quot;curved&quot;:0,&quot;rounded&quot;:0};" vertex="1" parent="tQIkWaGdxPZCIWXsiyPz-17">
          <mxGeometry x="45" y="180" width="10" height="40" as="geometry" />
        </mxCell>
        <mxCell id="tQIkWaGdxPZCIWXsiyPz-20" value="delItem" style="html=1;verticalAlign=bottom;endArrow=block;edgeStyle=elbowEdgeStyle;elbow=vertical;curved=0;rounded=0;strokeColor=default;" edge="1" parent="1" source="tQIkWaGdxPZCIWXsiyPz-19">
          <mxGeometry relative="1" as="geometry">
            <mxPoint x="555" y="220" as="sourcePoint" />
            <Array as="points">
              <mxPoint x="560" y="230" />
              <mxPoint x="585" y="220" />
              <mxPoint x="585" y="210" />
              <mxPoint x="595" y="240" />
              <mxPoint x="635" y="260" />
              <mxPoint x="595" y="240" />
              <mxPoint x="565" y="260" />
            </Array>
            <mxPoint x="620" y="230" as="targetPoint" />
            <mxPoint as="offset" />
          </mxGeometry>
        </mxCell>
        <mxCell id="tQIkWaGdxPZCIWXsiyPz-21" value="" style="html=1;verticalAlign=bottom;endArrow=block;edgeStyle=elbowEdgeStyle;elbow=vertical;curved=0;rounded=0;" edge="1" parent="1" target="tQIkWaGdxPZCIWXsiyPz-19">
          <mxGeometry relative="1" as="geometry">
            <mxPoint x="620" y="230" as="sourcePoint" />
            <Array as="points">
              <mxPoint x="560" y="250" />
              <mxPoint x="585" y="240" />
              <mxPoint x="595" y="230" />
              <mxPoint x="625" y="260" />
              <mxPoint x="605" y="250" />
              <mxPoint x="635" y="260" />
              <mxPoint x="605" y="250" />
              <mxPoint x="645" y="270" />
              <mxPoint x="605" y="250" />
              <mxPoint x="575" y="270" />
            </Array>
            <mxPoint x="555" y="240" as="targetPoint" />
          </mxGeometry>
        </mxCell>
        <mxCell id="tQIkWaGdxPZCIWXsiyPz-22" value="ListItems" style="html=1;verticalAlign=bottom;endArrow=open;dashed=1;endSize=8;edgeStyle=elbowEdgeStyle;elbow=vertical;curved=0;rounded=0;" edge="1" parent="1" source="tQIkWaGdxPZCIWXsiyPz-18">
          <mxGeometry x="-0.0833" relative="1" as="geometry">
            <mxPoint x="420" y="200" as="targetPoint" />
            <Array as="points">
              <mxPoint x="520" y="200" />
              <mxPoint x="460" y="250" />
            </Array>
            <mxPoint x="540" y="280" as="sourcePoint" />
            <mxPoint as="offset" />
          </mxGeometry>
        </mxCell>
        <mxCell id="tQIkWaGdxPZCIWXsiyPz-23" value="add items" style="html=1;verticalAlign=bottom;endArrow=block;edgeStyle=elbowEdgeStyle;elbow=vertical;curved=0;rounded=0;" edge="1" parent="1" source="aM9ryv3xv72pqoxQDRHE-6" target="tQIkWaGdxPZCIWXsiyPz-7">
          <mxGeometry relative="1" as="geometry">
            <mxPoint x="280" y="240" as="sourcePoint" />
            <Array as="points">
              <mxPoint x="285" y="240" />
              <mxPoint x="400" y="230" />
              <mxPoint x="300" y="260" />
              <mxPoint x="390" y="230" />
              <mxPoint x="300" y="250" />
              <mxPoint x="350" y="180" />
            </Array>
            <mxPoint x="400" y="240" as="targetPoint" />
            <mxPoint as="offset" />
          </mxGeometry>
        </mxCell>
        <mxCell id="tQIkWaGdxPZCIWXsiyPz-24" value="updateUi" style="html=1;verticalAlign=bottom;endArrow=open;dashed=1;endSize=8;edgeStyle=elbowEdgeStyle;elbow=vertical;curved=0;rounded=0;" edge="1" parent="1" source="tQIkWaGdxPZCIWXsiyPz-7" target="aM9ryv3xv72pqoxQDRHE-6">
          <mxGeometry relative="1" as="geometry">
            <mxPoint x="270" y="260" as="targetPoint" />
            <Array as="points">
              <mxPoint x="345" y="260" />
              <mxPoint x="365" y="340" />
              <mxPoint x="320" y="310" />
            </Array>
            <mxPoint x="400" y="260" as="sourcePoint" />
          </mxGeometry>
        </mxCell>
        <mxCell id="tQIkWaGdxPZCIWXsiyPz-28" value="add (audio, &lt;br&gt;video, txt...)" style="html=1;verticalAlign=bottom;endArrow=block;edgeStyle=elbowEdgeStyle;elbow=vertical;curved=0;rounded=0;strokeColor=default;" edge="1" parent="1" source="tQIkWaGdxPZCIWXsiyPz-18">
          <mxGeometry x="-0.2222" relative="1" as="geometry">
            <mxPoint x="540" y="170" as="sourcePoint" />
            <Array as="points">
              <mxPoint x="555" y="170" />
              <mxPoint x="580" y="160" />
              <mxPoint x="580" y="150" />
              <mxPoint x="590" y="180" />
              <mxPoint x="630" y="200" />
              <mxPoint x="590" y="180" />
              <mxPoint x="560" y="200" />
            </Array>
            <mxPoint x="620" y="170" as="targetPoint" />
            <mxPoint as="offset" />
          </mxGeometry>
        </mxCell>
        <mxCell id="tQIkWaGdxPZCIWXsiyPz-29" value="" style="html=1;verticalAlign=bottom;endArrow=block;edgeStyle=elbowEdgeStyle;elbow=vertical;curved=0;rounded=0;" edge="1" parent="1" target="tQIkWaGdxPZCIWXsiyPz-18">
          <mxGeometry relative="1" as="geometry">
            <mxPoint x="620" y="170" as="sourcePoint" />
            <Array as="points">
              <mxPoint x="555" y="190" />
              <mxPoint x="580" y="180" />
              <mxPoint x="590" y="170" />
              <mxPoint x="620" y="200" />
              <mxPoint x="600" y="190" />
              <mxPoint x="630" y="200" />
              <mxPoint x="600" y="190" />
              <mxPoint x="640" y="210" />
              <mxPoint x="600" y="190" />
              <mxPoint x="570" y="210" />
            </Array>
            <mxPoint x="540" y="190" as="targetPoint" />
          </mxGeometry>
        </mxCell>
        <mxCell id="tQIkWaGdxPZCIWXsiyPz-30" value="" style="edgeStyle=elbowEdgeStyle;rounded=0;orthogonalLoop=1;jettySize=auto;html=1;elbow=vertical;curved=0;" edge="1" parent="1" source="tQIkWaGdxPZCIWXsiyPz-19" target="tQIkWaGdxPZCIWXsiyPz-25">
          <mxGeometry relative="1" as="geometry" />
        </mxCell>
      </root>
    </mxGraphModel>
  </diagram>
</mxfile>
